<?xml version="1.0" encoding="iso-8859-1"?>
<!-- Generator: Adobe Illustrator 19.0.0, SVG Export Plug-In . SVG Version: 6.00 Build 0)  -->
<svg version="1.1" id="Capa_1" xmlns="http://www.w3.org/2000/svg" xmlns:xlink="http://www.w3.org/1999/xlink" x="0px" y="0px"
	 viewBox="0 0 512 512" style="enable-background:new 0 0 512 512;" xml:space="preserve">
<g>
	<path style="fill:#FF994D;" d="M63.366,441.03L63.366,441.03c-30.797,0-55.762-24.965-55.762-55.762v-74.519h55.762V441.03z"/>
	<path style="fill:#FF994D;" d="M448.634,441.03L448.634,441.03c30.797,0,55.762-24.965,55.762-55.762v-74.519h-55.762V441.03z"/>
</g>
<path style="fill:#E2324E;" d="M120.143,504.396L120.143,504.396c-31.357,0-56.776-25.42-56.776-56.776V304.158
	c0-31.357,25.42-56.776,56.776-56.776l0,0c31.357,0,56.776,25.42,56.776,56.776V447.62
	C176.919,478.977,151.499,504.396,120.143,504.396z"/>
<path style="fill:#FFFFFF;" d="M154.107,304.158h-15.208c0-10.342-8.414-18.756-18.756-18.756v-15.208
	C138.871,270.194,154.107,285.43,154.107,304.158z"/>
<path style="fill:#E2324E;" d="M391.857,504.396L391.857,504.396c31.357,0,56.776-25.42,56.776-56.776V304.158
	c0-31.357-25.42-56.776-56.776-56.776l0,0c-31.357,0-56.776,25.42-56.776,56.776V447.62
	C335.081,478.977,360.501,504.396,391.857,504.396z"/>
<path style="fill:#FFFFFF;" d="M373.101,304.158h-15.208c0-18.728,15.236-33.964,33.964-33.964v15.208
	C381.515,285.402,373.101,293.816,373.101,304.158z"/>
<g>
	<path style="fill:#A00B3F;" d="M120.143,470.939L120.143,470.939c-31.357,0-56.776-25.42-56.776-56.776v33.457
		c0,31.357,25.42,56.776,56.776,56.776l0,0c31.357,0,56.776-25.42,56.776-56.776v-33.457
		C176.919,445.519,151.499,470.939,120.143,470.939z"/>
	<path style="fill:#A00B3F;" d="M391.857,470.939L391.857,470.939c-31.357,0-56.776-25.42-56.776-56.776v33.457
		c0,31.357,25.42,56.776,56.776,56.776l0,0c31.357,0,56.776-25.42,56.776-56.776v-33.457
		C448.634,445.519,423.214,470.939,391.857,470.939z"/>
</g>
<path style="fill:#D8D7DA;" d="M7.604,310.749V256C7.604,118.814,118.814,7.604,256,7.604l0,0
	c137.186,0,248.396,111.21,248.396,248.396v54.749H447.62v-49.679c0-106.389-86.245-192.634-192.634-192.634l0,0
	c-106.389,0-192.634,86.245-192.634,192.634v49.679H7.604z"/>
<g>
	<path style="fill:#FF6E4A;" d="M7.604,342.685v42.582c0,30.797,24.965,55.762,55.762,55.762l0,0v-42.582l0,0
		C32.569,398.448,7.604,373.482,7.604,342.685z"/>
	<path style="fill:#FF6E4A;" d="M448.634,398.448L448.634,398.448v42.582l0,0c30.797,0,55.762-24.965,55.762-55.762v-42.582
		C504.396,373.482,479.431,398.448,448.634,398.448z"/>
</g>
<path style="fill:#ACABB1;" d="M254.986,48.158c-117.399,0-212.911,95.512-212.911,212.911v49.679h20.277v-49.679
	c0-106.389,86.245-192.634,192.634-192.634l0,0c106.389,0,192.634,86.245,192.634,192.634v49.679h20.277v-49.679
	C467.897,143.67,372.385,48.158,254.986,48.158z"/>
<g>
	<rect x="138.899" y="315.818" style="fill:#FFFFFF;" width="15.208" height="15.208"/>
	<rect x="357.893" y="315.818" style="fill:#FFFFFF;" width="15.208" height="15.208"/>
</g>
<path d="M437.019,74.981C388.668,26.629,324.38,0,256,0S123.332,26.629,74.981,74.981C26.629,123.332,0,187.62,0,256v47.145v15.208
	v66.915c0,32.371,24.404,59.131,55.777,62.896C56.071,483.412,84.826,512,120.143,512c35.499,0,64.38-28.881,64.38-64.38V304.158
	c0-35.499-28.881-64.38-64.38-64.38c-20.273,0-38.377,9.429-50.186,24.121v-2.83c0-102.026,83.004-185.03,185.03-185.03
	s185.03,83.004,185.03,185.03v0.428c-11.803-13.309-29.013-21.719-48.158-21.719c-35.499,0-64.38,28.881-64.38,64.38V447.62
	c0,35.499,28.881,64.38,64.38,64.38c35.317,0,64.072-28.588,64.366-63.837C487.596,444.399,512,417.638,512,385.267v-66.915v-15.208
	V256C512,187.62,485.371,123.332,437.019,74.981z M15.208,385.267v-66.915h40.554v114.473
	C32.808,429.171,15.208,409.236,15.208,385.267z M120.143,254.986c27.114,0,49.172,22.059,49.172,49.172V447.62
	c0,27.114-22.059,49.172-49.172,49.172S70.97,474.734,70.97,447.62V304.158C70.97,277.045,93.029,254.986,120.143,254.986z
	 M391.857,496.792c-27.114,0-49.172-22.059-49.172-49.172V304.158c0-27.114,22.059-49.172,49.172-49.172
	c23.704,0,43.543,16.861,48.158,39.218v24.148h1.014V447.62C441.03,474.734,418.971,496.792,391.857,496.792z M496.792,385.267
	c0,23.969-17.6,43.903-40.554,47.558V318.352h40.554V385.267z M456.212,303.145c-0.055-3.505-0.392-6.94-0.989-10.29v-31.786
	c0-110.411-89.826-200.238-200.238-200.238S54.749,150.659,54.749,261.069v42.075H15.208V256
	C15.208,123.227,123.227,15.208,256,15.208S496.792,123.227,496.792,256v47.145H456.212z"/>
<rect x="112.539" y="342.178" width="15.208" height="15.208"/>
<rect x="112.539" y="403.01" width="15.208" height="15.208"/>
<rect x="112.539" y="372.594" width="15.208" height="15.208"/>
<rect x="384.253" y="342.178" width="15.208" height="15.208"/>
<rect x="384.253" y="372.594" width="15.208" height="15.208"/>
<rect x="384.253" y="403.01" width="15.208" height="15.208"/>
<g>
</g>
<g>
</g>
<g>
</g>
<g>
</g>
<g>
</g>
<g>
</g>
<g>
</g>
<g>
</g>
<g>
</g>
<g>
</g>
<g>
</g>
<g>
</g>
<g>
</g>
<g>
</g>
<g>
</g>
</svg>
