<svg id="Capa_1" enable-background="new 0 0 512 512" height="512" viewBox="0 0 512 512" width="512" xmlns="http://www.w3.org/2000/svg"><g><path d="m324.683 106.667h93.658v62.439h-93.658z" fill="#9dc6fb"/><path d="m324.683 169.106h60.358v-23.935c0-14.705-5.788-28.34-15.35-38.504h-45.008z" fill="#80b4fb"/><path d="m454.869 252.357h-26.226c-5.69 0-10.302-4.612-10.302-10.302v-208.339c0-5.69 4.612-10.302 10.302-10.302h26.226c5.69 0 10.302 4.612 10.302 10.302v208.339c-.001 5.69-4.613 10.302-10.302 10.302z" fill="#4073c8"/><path d="m501.698 231.545h-36.528v-187.317h36.527c5.69 0 10.302 4.612 10.302 10.302v166.713c.001 5.689-4.612 10.302-10.301 10.302z" fill="#4073c8"/><path d="m465.17 44.228h22.894v187.317h-22.894z" fill="#30579d"/><path d="m93.658 106.666h58.276v62.439h-58.276z" fill="#9dc6fb" transform="matrix(-1 0 0 -1 245.593 275.772)"/><path d="m126.959 106.666h24.975v62.439h-24.975z" fill="#80b4fb"/><path d="m57.131 252.357h26.226c5.69 0 10.302-4.612 10.302-10.302v-208.339c0-5.69-4.612-10.302-10.302-10.302h-26.226c-5.69 0-10.302 4.612-10.302 10.302v208.339c0 5.69 4.612 10.302 10.302 10.302z" fill="#4073c8"/><path d="m10.302 231.545h36.527v-187.317h-36.527c-5.69 0-10.302 4.612-10.302 10.301v166.713c0 5.69 4.612 10.303 10.302 10.303z" fill="#4073c8"/><path d="m23.935 44.228h22.894v187.317h-22.894z" fill="#30579d" transform="matrix(-1 0 0 -1 70.764 275.772)"/><g><path d="m151.935 223.53v-95.051h177.951v158.221 191.584c0 5.69-4.612 10.302-10.302 10.302h-127.169c-5.69 0-10.302-4.612-10.302-10.302v-191.585l-19.121-27.692c-7.2-10.429-11.057-22.803-11.057-35.477z" fill="#e2a770"/><g fill="#f1d0a5"><path d="m266.406 206.569c-12.644 0-22.894-10.25-22.894-22.894v-119.675c0-12.644 10.25-22.894 22.894-22.894 12.644 0 22.894 10.25 22.894 22.894v119.675c.001 12.644-10.25 22.894-22.894 22.894z"/><path d="m312.195 196.683c-12.644 0-22.894-10.25-22.894-22.894v-99.903c0-12.644 10.25-22.894 22.894-22.894 12.644 0 22.894 10.25 22.894 22.894v99.902c0 12.645-10.25 22.895-22.894 22.895z"/><path d="m220.618 196.683c-12.644 0-22.894-10.25-22.894-22.894v-99.903c0-12.644 10.25-22.894 22.894-22.894 12.644 0 22.894 10.25 22.894 22.894v99.902c0 12.645-10.25 22.895-22.894 22.895z"/><path d="m174.829 176.91c-12.644 0-22.894-10.25-22.894-22.894v-60.358c0-12.644 10.25-22.894 22.894-22.894 12.644 0 22.894 10.25 22.894 22.894v60.358c0 12.644-10.25 22.894-22.894 22.894z"/></g><path d="m266.406 41.106c-2.938 0-5.744.56-8.325 1.568 8.526 3.331 14.569 11.62 14.569 21.326v119.675c0 9.706-6.043 17.995-14.569 21.326 2.581 1.008 5.387 1.568 8.325 1.568 12.644 0 22.894-10.25 22.894-22.894v-119.675c.001-12.644-10.25-22.894-22.894-22.894z" fill="#f1b986"/><path d="m312.195 50.992c-2.938 0-5.744.56-8.325 1.568 8.526 3.331 14.569 11.62 14.569 21.326v99.902c0 9.706-6.043 17.995-14.569 21.326 2.581 1.008 5.387 1.568 8.325 1.568 12.644 0 22.894-10.25 22.894-22.894v-99.902c0-12.644-10.25-22.894-22.894-22.894z" fill="#f1b986"/><path d="m220.618 50.992c-2.938 0-5.744.56-8.325 1.568 8.526 3.331 14.569 11.62 14.569 21.326v99.902c0 9.706-6.043 17.995-14.569 21.326 2.581 1.008 5.387 1.568 8.325 1.568 12.644 0 22.894-10.25 22.894-22.894v-99.902c0-12.644-10.25-22.894-22.894-22.894z" fill="#f1b986"/><path d="m174.829 70.764c-2.938 0-5.744.56-8.325 1.568 8.526 3.331 14.569 11.62 14.569 21.326v60.358c0 9.706-6.043 17.995-14.569 21.326 2.581 1.008 5.387 1.568 8.325 1.568 12.644 0 22.894-10.25 22.894-22.894v-60.358c0-12.644-10.25-22.894-22.894-22.894z" fill="#f1b986"/><path d="m360.065 145.171c0-17.242-13.977-31.219-31.219-31.219h-72.846c-11.495 0-20.813 9.318-20.813 20.813 0 11.495 9.318 20.813 20.813 20.813h45.789v26.016l-40.121 15.672c-15.969 6.238-26.48 21.629-26.48 38.773v50.66h94.699l19.121-27.692c7.201-10.429 11.058-22.803 11.058-35.477z" fill="#e2a770"/></g><path d="m309.518 165.879v15.71c0 3.182-1.951 6.039-4.914 7.197l-40.126 15.68c-13.099 5.113-21.561 17.504-21.561 31.569v14.954c0 4.231-3.261 7.92-7.49 8.046-4.376.131-7.963-3.377-7.963-7.723v-15.278c0-20.478 12.323-38.52 31.393-45.963l35.208-13.759v-20.736h5.151c5.69.001 10.302 4.614 10.302 10.303z" fill="#d5985c"/></g></svg>